<svg width="24" height="25" viewBox="0 0 24 25" fill="none" xmlns="http://www.w3.org/2000/svg">
<path d="M8.35181 20.7418C9.1929 21.811 10.5142 22.5 12 22.5C13.4858 22.5 14.8071 21.811 15.6482 20.7418C13.2264 21.07 10.7736 21.07 8.35181 20.7418Z" fill="#FFC107"/>
<path d="M18.7491 9.5V10.2041C18.7491 11.0491 18.9903 11.8752 19.4422 12.5782L20.5496 14.3012C21.5612 15.8749 20.789 18.0139 19.0296 18.5116C14.4273 19.8134 9.57274 19.8134 4.97036 18.5116C3.21105 18.0139 2.43882 15.8749 3.45036 14.3012L4.5578 12.5782C5.00972 11.8752 5.25087 11.0491 5.25087 10.2041V9.5C5.25087 5.63401 8.27256 2.5 12 2.5C15.7274 2.5 18.7491 5.63401 18.7491 9.5Z" fill="#FFC107"/>
</svg>
