<svg width="12" height="13" viewBox="0 0 12 13" fill="none" xmlns="http://www.w3.org/2000/svg">
<path d="M2.1925 11.4979L2.59207 10.9377L2.1925 11.4979ZM1.57235 10.889L2.12543 10.4797L1.57235 10.889ZM10.5931 10.889L10.04 10.4797L10.5931 10.889ZM9.97292 11.4979L10.3725 12.058L9.97292 11.4979ZM9.97292 2.64116L10.3725 2.08101L9.97292 2.64116ZM10.5931 3.25004L10.04 3.65932L10.5931 3.25004ZM2.1925 2.64116L2.59207 3.2013L2.1925 2.64116ZM1.57235 3.25004L2.12543 3.65932V3.65932L1.57235 3.25004ZM10.1293 8.75473L10.0236 8.07485V8.07485L10.1293 8.75473ZM7.79913 11.0425L7.11986 10.9329L7.79913 11.0425ZM4.4008 6.9319C4.0208 6.9319 3.71275 7.23996 3.71275 7.61996C3.71275 7.99996 4.0208 8.30801 4.4008 8.30801V6.9319ZM7.76462 8.30801C8.14462 8.30801 8.45267 7.99996 8.45267 7.61996C8.45267 7.23996 8.14462 6.9319 7.76462 6.9319V8.30801ZM7.07656 2.66598C7.07656 3.04598 7.38462 3.35403 7.76462 3.35403C8.14462 3.35403 8.45267 3.04598 8.45267 2.66598H7.07656ZM8.45267 1.01465C8.45267 0.634647 8.14462 0.326595 7.76462 0.326595C7.38462 0.326595 7.07656 0.634647 7.07656 1.01465H8.45267ZM3.71275 2.66598C3.71275 3.04598 4.0208 3.35403 4.4008 3.35403C4.7808 3.35403 5.08886 3.04598 5.08886 2.66598H3.71275ZM5.08886 1.01465C5.08886 0.634647 4.7808 0.326595 4.4008 0.326595C4.0208 0.326595 3.71275 0.634647 3.71275 1.01465H5.08886ZM11.1122 8.72084L11.7998 8.74484L11.1122 8.72084ZM1.05321 5.41819L0.365571 5.39419L1.05321 5.41819ZM11.1122 5.41819L11.7998 5.39419L11.1122 5.41819ZM6.08271 11.3354C5.01654 11.3354 4.27118 11.3345 3.69837 11.2736C3.1377 11.214 2.8242 11.1033 2.59207 10.9377L1.79293 12.058C2.29765 12.4181 2.87815 12.5702 3.55281 12.642C4.21532 12.7125 5.04665 12.7116 6.08271 12.7116V11.3354ZM0.348934 7.06952C0.348934 8.08592 0.347955 8.9045 0.420006 9.55743C0.493561 10.224 0.649955 10.7992 1.01926 11.2983L2.12543 10.4797C1.95938 10.2553 1.84809 9.9528 1.78781 9.40649C1.72602 8.84655 1.72504 8.11713 1.72504 7.06952H0.348934ZM2.59207 10.9377C2.41252 10.8097 2.25514 10.655 2.12543 10.4797L1.01926 11.2983C1.23535 11.5903 1.49652 11.8466 1.79293 12.058L2.59207 10.9377ZM10.04 10.4797C9.91028 10.655 9.7529 10.8097 9.57335 10.9377L10.3725 12.058C10.6689 11.8466 10.9301 11.5903 11.1462 11.2983L10.04 10.4797ZM9.57335 3.2013C9.7529 3.32938 9.91028 3.48403 10.04 3.65932L11.1462 2.84075C10.9301 2.54874 10.6689 2.29245 10.3725 2.08101L9.57335 3.2013ZM1.79293 2.08101C1.49653 2.29245 1.23535 2.54874 1.01926 2.84075L2.12543 3.65932C2.25514 3.48403 2.41252 3.32938 2.59207 3.2013L1.79293 2.08101ZM10.0236 8.07485C8.5367 8.30606 7.35844 9.45395 7.11986 10.9329L8.4784 11.1521C8.61977 10.2758 9.32294 9.57644 10.235 9.43461L10.0236 8.07485ZM4.4008 8.30801H7.76462V6.9319H4.4008V8.30801ZM11.1122 8.03279C10.6269 8.03279 10.3048 8.03112 10.0236 8.07485L10.235 9.43461C10.3851 9.41127 10.5774 9.4089 11.1122 9.4089L11.1122 8.03279ZM10.4404 7.06952C10.4404 7.71682 10.4403 8.24664 10.4246 8.69685L11.7998 8.74484C11.8166 8.26552 11.8165 7.70906 11.8165 7.06952H10.4404ZM10.4246 8.69685C10.3891 9.71348 10.2725 10.1655 10.04 10.4797L11.1462 11.2983C11.6506 10.6167 11.7637 9.78046 11.7998 8.74484L10.4246 8.69685ZM8.45267 12.0076C8.45267 11.4811 8.45521 11.2959 8.4784 11.1521L7.11986 10.9329C7.07475 11.2126 7.07657 11.5325 7.07656 12.0076L8.45267 12.0076ZM6.08271 12.7116C6.73431 12.7116 7.30035 12.7116 7.78775 12.6952L7.74149 11.3199C7.28215 11.3354 6.74179 11.3354 6.08271 11.3354V12.7116ZM7.78775 12.6952C8.84042 12.6598 9.68384 12.5493 10.3725 12.058L9.57335 10.9377C9.24769 11.17 8.77907 11.285 7.74149 11.3199L7.78775 12.6952ZM1.72504 7.06952C1.72504 6.42221 1.72513 5.89239 1.74084 5.44218L0.365571 5.39419C0.348845 5.87351 0.348934 6.42997 0.348934 7.06952H1.72504ZM1.74084 5.44218C1.77632 4.42555 1.89289 3.97357 2.12543 3.65932L1.01926 2.84075C0.514869 3.52237 0.40171 4.35857 0.365571 5.39419L1.74084 5.44218ZM1.05321 6.10624H11.1122V4.73013H1.05321V6.10624ZM11.8165 7.06952C11.8165 6.42997 11.8166 5.87351 11.7998 5.39419L10.4246 5.44218C10.4403 5.89239 10.4404 6.42221 10.4404 7.06952H11.8165ZM11.7998 5.39419C11.7637 4.35857 11.6506 3.52237 11.1462 2.84075L10.04 3.65932C10.2725 3.97357 10.3891 4.42555 10.4246 5.44218L11.7998 5.39419ZM8.45267 2.66598V2.13146H7.07656V2.66598H8.45267ZM8.45267 2.13146V1.01465H7.07656V2.13146H8.45267ZM6.08271 2.80359C6.74179 2.80359 7.28215 2.80367 7.74149 2.81912L7.78775 1.44379C7.30035 1.4274 6.73431 1.42748 6.08271 1.42748V2.80359ZM7.74149 2.81912C8.77907 2.85402 9.24769 2.969 9.57335 3.2013L10.3725 2.08101C9.68384 1.58978 8.84042 1.4792 7.78775 1.44379L7.74149 2.81912ZM5.08886 2.66598V2.13146H3.71275V2.66598H5.08886ZM5.08886 2.13146V1.01465H3.71275V2.13146H5.08886ZM6.08271 1.42748C5.43111 1.42748 4.86507 1.4274 4.37767 1.44379L4.42393 2.81912C4.88327 2.80367 5.42363 2.80359 6.08271 2.80359V1.42748ZM4.37767 1.44379C3.325 1.4792 2.48158 1.58978 1.79293 2.08101L2.59207 3.2013C2.91773 2.969 3.38635 2.85402 4.42393 2.81912L4.37767 1.44379Z" fill="white"/>
</svg>
