<svg width="12" height="12" viewBox="0 0 12 12" fill="none" xmlns="http://www.w3.org/2000/svg">
<path d="M2.14504 10.9748L2.437 10.5689L2.14504 10.9748ZM1.53051 10.3664L1.93361 10.0706L1.53051 10.3664ZM10.4695 10.3664L10.0664 10.0706L10.4695 10.3664ZM9.85496 10.9748L10.1469 11.3807L9.85496 10.9748ZM9.85496 2.1252L10.1469 1.7193L9.85496 2.1252ZM10.4695 2.73359L10.0664 3.02942L10.4695 2.73359ZM2.14504 2.1252L2.437 2.53111L2.14504 2.1252ZM1.53051 2.73359L1.93361 3.02942L1.53051 2.73359ZM10.0099 8.23386L9.93245 7.73989L10.0099 8.23386ZM7.70087 10.5198L7.20714 10.4408L7.70087 10.5198ZM4.33333 6.6C4.05719 6.6 3.83333 6.82386 3.83333 7.1C3.83333 7.37614 4.05719 7.6 4.33333 7.6V6.6ZM7.66667 7.6C7.94281 7.6 8.16667 7.37614 8.16667 7.1C8.16667 6.82386 7.94281 6.6 7.66667 6.6V7.6ZM7.16667 2.15C7.16667 2.42614 7.39052 2.65 7.66667 2.65C7.94281 2.65 8.16667 2.42614 8.16667 2.15H7.16667ZM8.16667 0.5C8.16667 0.223858 7.94281 0 7.66667 0C7.39052 0 7.16667 0.223858 7.16667 0.5H8.16667ZM3.83333 2.15C3.83333 2.42614 4.05719 2.65 4.33333 2.65C4.60948 2.65 4.83333 2.42614 4.83333 2.15H3.83333ZM4.83333 0.5C4.83333 0.223858 4.60948 0 4.33333 0C4.05719 0 3.83333 0.223858 3.83333 0.5H4.83333ZM10.9839 8.2L11.4836 8.21729L10.9839 8.2ZM1.01607 4.9L0.516371 4.88271L1.01607 4.9ZM10.9839 4.9L11.4836 4.88271L10.9839 4.9ZM6 11C4.94738 11 4.19768 10.9993 3.61847 10.9372C3.04832 10.876 2.70286 10.7601 2.437 10.5689L1.85308 11.3807C2.3174 11.7147 2.85783 11.8614 3.51182 11.9315C4.15675 12.0007 4.96944 12 6 12V11ZM0.5 6.55C0.5 7.56993 0.4993 8.37544 0.569281 9.0149C0.640319 9.66402 0.789033 10.2012 1.12741 10.6622L1.93361 10.0706C1.74148 9.80878 1.62494 9.46889 1.56335 8.90611C1.5007 8.33368 1.5 7.59242 1.5 6.55H0.5ZM2.437 10.5689C2.24364 10.4298 2.0738 10.2616 1.93361 10.0706L1.12741 10.6622C1.32988 10.9381 1.57481 11.1805 1.85308 11.3807L2.437 10.5689ZM10.0664 10.0706C9.9262 10.2616 9.75636 10.4298 9.563 10.5689L10.1469 11.3807C10.4252 11.1805 10.6701 10.9381 10.8726 10.6622L10.0664 10.0706ZM9.563 2.53111C9.75636 2.67019 9.9262 2.83839 10.0664 3.02942L10.8726 2.43777C10.6701 2.16187 10.4252 1.91945 10.1469 1.7193L9.563 2.53111ZM1.85308 1.7193C1.57481 1.91945 1.32988 2.16187 1.12741 2.43777L1.93361 3.02942C2.0738 2.83839 2.24364 2.67019 2.437 2.53111L1.85308 1.7193ZM9.93245 7.73989C8.5327 7.95937 7.43007 9.0474 7.20714 10.4408L8.19459 10.5988C8.34817 9.6388 9.10993 8.88108 10.0874 8.72782L9.93245 7.73989ZM4.33333 7.6H7.66667V6.6H4.33333V7.6ZM10.9839 7.7C10.4967 7.7 10.1942 7.69886 9.93245 7.73989L10.0874 8.72782C10.253 8.70185 10.4604 8.7 10.9839 8.7L10.9839 7.7ZM10.5 6.55C10.5 7.1957 10.4999 7.72881 10.4842 8.18271L11.4836 8.21729C11.5001 7.74241 11.5 7.19011 11.5 6.55H10.5ZM10.4842 8.18271C10.449 9.20144 10.3338 9.70618 10.0664 10.0706L10.8726 10.6622C11.3354 10.0316 11.4479 9.24916 11.4836 8.21729L10.4842 8.18271ZM8.16667 11.4841C8.16667 10.9652 8.16858 10.7614 8.19459 10.5988L7.20714 10.4408C7.16547 10.7013 7.16667 11.0022 7.16667 11.4841L8.16667 11.4841ZM6 12C6.64667 12 7.20425 12.0001 7.68362 11.9838L7.64972 10.9844C7.19092 10.9999 6.65214 11 6 11V12ZM7.68362 11.9838C8.72506 11.9485 9.5121 11.8373 10.1469 11.3807L9.563 10.5689C9.19271 10.8352 8.67959 10.9494 7.64972 10.9844L7.68362 11.9838ZM1.5 6.55C1.5 5.9043 1.50006 5.37119 1.51577 4.91729L0.516371 4.88271C0.499936 5.35759 0.5 5.90989 0.5 6.55H1.5ZM1.51577 4.91729C1.55103 3.89856 1.66618 3.39382 1.93361 3.02942L1.12741 2.43777C0.664578 3.06843 0.552081 3.85084 0.516371 4.88271L1.51577 4.91729ZM1.01607 5.4H10.9839V4.4H1.01607V5.4ZM11.5 6.55C11.5 5.90989 11.5001 5.35759 11.4836 4.88271L10.4842 4.91729C10.4999 5.37119 10.5 5.9043 10.5 6.55H11.5ZM11.4836 4.88271C11.4479 3.85084 11.3354 3.06843 10.8726 2.43777L10.0664 3.02942C10.3338 3.39382 10.449 3.89856 10.4842 4.91729L11.4836 4.88271ZM8.16667 2.15V1.61591H7.16667V2.15H8.16667ZM8.16667 1.61591V0.5H7.16667V1.61591H8.16667ZM6 2.1C6.65214 2.1 7.19092 2.10006 7.64972 2.11562L7.68362 1.1162C7.20425 1.09994 6.64666 1.1 6 1.1V2.1ZM7.64972 2.11562C8.67959 2.15056 9.19271 2.26476 9.563 2.53111L10.1469 1.7193C9.5121 1.26268 8.72506 1.15152 7.68362 1.1162L7.64972 2.11562ZM4.83333 2.15V1.61591H3.83333V2.15H4.83333ZM4.83333 1.61591V0.5H3.83333V1.61591H4.83333ZM6 1.1C5.35334 1.1 4.79575 1.09994 4.31638 1.1162L4.35028 2.11562C4.80908 2.10006 5.34786 2.1 6 2.1V1.1ZM4.31638 1.1162C3.27494 1.15152 2.4879 1.26268 1.85308 1.7193L2.437 2.53111C2.8073 2.26476 3.32041 2.15056 4.35028 2.11562L4.31638 1.1162Z" fill="#505050"/>
</svg>
