<svg width="25" height="32" viewBox="0 0 25 32" fill="none" xmlns="http://www.w3.org/2000/svg">
<path d="M12.04 26C17.5628 26 22.04 21.5228 22.04 16C22.04 10.4771 17.5628 6 12.04 6C6.51719 6 2.04004 10.4771 2.04004 16C2.04004 17.5997 2.41566 19.1116 3.0835 20.4525C3.26098 20.8088 3.32005 21.2161 3.21716 21.6006L2.62155 23.8267C2.36299 24.793 3.24705 25.677 4.21339 25.4185L6.43943 24.8229C6.82397 24.72 7.23125 24.7791 7.58757 24.9565C8.92841 25.6244 10.4403 26 12.04 26Z" stroke="#BDBDBD" stroke-width="1.5"/>
<path opacity="0.5" d="M8.04004 14.5H16.04" stroke="#BDBDBD" stroke-width="1.5" stroke-linecap="round"/>
<path opacity="0.5" d="M8.04004 18H13.54" stroke="#BDBDBD" stroke-width="1.5" stroke-linecap="round"/>
</svg>
