<svg width="24" height="32" viewBox="0 0 24 32" fill="none" xmlns="http://www.w3.org/2000/svg">
<path d="M2.36407 16.9579C1.98463 14.3208 1.79491 13.0023 2.33537 11.8749C2.87583 10.7476 4.02619 10.0623 6.32691 8.69181L7.71175 7.86687C9.80104 6.62229 10.8457 6 12 6C13.1543 6 14.199 6.62229 16.2882 7.86687L17.6731 8.69181C19.9738 10.0623 21.1242 10.7476 21.6646 11.8749C22.2051 13.0023 22.0154 14.3208 21.6359 16.9579L21.3572 18.8952C20.8697 22.2827 20.626 23.9764 19.451 24.9882C18.2759 26 16.5526 26 13.1061 26H10.8939C7.44737 26 5.72409 26 4.54903 24.9882C3.37396 23.9764 3.13025 22.2827 2.64284 18.8952L2.36407 16.9579Z" stroke="#BDBDBD" stroke-width="1.5"/>
<path d="M9 20C9.85038 20.6303 10.8846 21 12 21C13.1154 21 14.1496 20.6303 15 20" stroke="#BDBDBD" stroke-width="1.5" stroke-linecap="round"/>
</svg>
