<svg width="11" height="14" viewBox="0 0 11 14" fill="none" xmlns="http://www.w3.org/2000/svg">
<path d="M7.21845 11.3111L6.69625 10.8631V10.8631L7.21845 11.3111ZM4.02956 11.3111L3.50736 11.7591L4.02956 11.3111ZM5.62401 12.5191V11.831V12.5191ZM9.52298 6.02202C9.52298 6.5663 9.20127 7.35996 8.62629 8.28912C8.07021 9.18773 7.34752 10.1039 6.69625 10.8631L7.74066 11.7591C8.41374 10.9745 9.18735 9.99757 9.79646 9.01325C10.3867 8.05947 10.8991 6.98044 10.8991 6.02202H9.52298ZM4.55177 10.8631C3.90049 10.1039 3.17781 9.18773 2.62173 8.28912C2.04675 7.35996 1.72504 6.5663 1.72504 6.02202H0.348934C0.348934 6.98044 0.861336 8.05947 1.45155 9.01325C2.06067 9.99757 2.83427 10.9745 3.50736 11.7591L4.55177 10.8631ZM1.72504 6.02202C1.72504 3.92093 3.45989 2.19831 5.62401 2.19831V0.822201C2.72144 0.822201 0.348934 3.13955 0.348934 6.02202H1.72504ZM5.62401 2.19831C7.78812 2.19831 9.52298 3.92093 9.52298 6.02202H10.8991C10.8991 3.13955 8.52658 0.822201 5.62401 0.822201V2.19831ZM6.69625 10.8631C6.3352 11.2839 6.11903 11.5323 5.93186 11.6877C5.77632 11.8169 5.70064 11.831 5.62401 11.831V13.2072C6.1054 13.2072 6.48148 13.02 6.81092 12.7465C7.10872 12.4992 7.41076 12.1436 7.74066 11.7591L6.69625 10.8631ZM3.50736 11.7591C3.83725 12.1436 4.1393 12.4992 4.4371 12.7465C4.76654 13.02 5.14261 13.2072 5.62401 13.2072V11.831C5.54737 11.831 5.47169 11.8169 5.31616 11.6877C5.12898 11.5323 4.91282 11.2839 4.55177 10.8631L3.50736 11.7591ZM3.21582 6.2271C3.21582 7.53235 4.35351 8.48744 5.62401 8.48744V7.11133C4.9945 7.11133 4.59193 6.65855 4.59193 6.2271H3.21582ZM5.62401 8.48744C6.8945 8.48744 8.03219 7.53235 8.03219 6.2271H6.65609C6.65609 6.65855 6.25352 7.11133 5.62401 7.11133V8.48744ZM8.03219 6.2271C8.03219 4.92186 6.8945 3.96677 5.62401 3.96677V5.34287C6.25352 5.34287 6.65609 5.79565 6.65609 6.2271H8.03219ZM5.62401 3.96677C4.35351 3.96677 3.21582 4.92186 3.21582 6.2271H4.59193C4.59193 5.79565 4.9945 5.34287 5.62401 5.34287V3.96677Z" fill="white"/>
</svg>
