<svg width="11" height="12" viewBox="0 0 11 12" fill="none" xmlns="http://www.w3.org/2000/svg">
<path d="M7.0642 10.2929L6.68178 9.97082L7.0642 10.2929ZM3.9358 10.2929L3.55339 10.6151L3.9358 10.2929ZM5.5 11.5V11V11.5ZM9.5 5.00814C9.5 5.61102 9.1578 6.44431 8.592 7.37557C8.03933 8.2852 7.32355 9.20893 6.68178 9.97082L7.44661 10.6151C8.10408 9.83453 8.8562 8.8666 9.44662 7.89481C10.0239 6.94465 10.5 5.90675 10.5 5.00814H9.5ZM4.31822 9.97082C3.67645 9.20893 2.96067 8.2852 2.408 7.37557C1.8422 6.44431 1.5 5.61102 1.5 5.00814H0.5C0.5 5.90675 0.976087 6.94465 1.55338 7.89481C2.1438 8.8666 2.89592 9.83453 3.55339 10.6151L4.31822 9.97082ZM1.5 5.00814C1.5 2.79365 3.29171 1 5.5 1V0C2.73772 0 0.5 2.24307 0.5 5.00814H1.5ZM5.5 1C7.70829 1 9.5 2.79365 9.5 5.00814H10.5C10.5 2.24307 8.26228 0 5.5 0V1ZM6.68178 9.97082C6.33161 10.3865 6.10831 10.649 5.91034 10.8165C5.7351 10.9646 5.62378 11 5.5 11V12C5.92366 12 6.25553 11.8342 6.55607 11.58C6.83387 11.3451 7.11895 11.004 7.44661 10.6151L6.68178 9.97082ZM3.55339 10.6151C3.88105 11.004 4.16613 11.3451 4.44393 11.58C4.74447 11.8342 5.07634 12 5.5 12V11C5.37622 11 5.2649 10.9646 5.08966 10.8165C4.89169 10.649 4.66839 10.3865 4.31822 9.97082L3.55339 10.6151ZM3.3125 5.21306C3.3125 6.38993 4.32616 7.28408 5.5 7.28408V6.28408C4.80988 6.28408 4.3125 5.77149 4.3125 5.21306H3.3125ZM5.5 7.28408C6.67384 7.28408 7.6875 6.38993 7.6875 5.21306H6.6875C6.6875 5.77149 6.19012 6.28408 5.5 6.28408V7.28408ZM7.6875 5.21306C7.6875 4.03619 6.67384 3.14204 5.5 3.14204V4.14204C6.19012 4.14204 6.6875 4.65463 6.6875 5.21306H7.6875ZM5.5 3.14204C4.32616 3.14204 3.3125 4.03619 3.3125 5.21306H4.3125C4.3125 4.65463 4.80988 4.14204 5.5 4.14204V3.14204Z" fill="#505050"/>
</svg>
