<svg width="12" height="12" viewBox="0 0 12 12" fill="none" xmlns="http://www.w3.org/2000/svg">
<g clip-path="url(#clip0_148_391)">
<path d="M6 11C8.7614 11 11 8.7614 11 6C11 3.23857 8.7614 1 6 1C3.23857 1 1 3.23857 1 6C1 6.79985 1.18781 7.5558 1.52173 8.22625C1.61047 8.4044 1.64 8.60805 1.58856 8.8003L1.29076 9.91335C1.16148 10.3965 1.6035 10.8385 2.08667 10.7093L3.1997 10.4115C3.39197 10.36 3.59561 10.3895 3.77377 10.4782C4.44419 10.8122 5.20015 11 6 11Z" stroke="#5151C6"/>
<path opacity="0.5" d="M4 5.25H8" stroke="#5151C6" stroke-linecap="round"/>
<path opacity="0.5" d="M4 7H6.75" stroke="#5151C6" stroke-linecap="round"/>
</g>
<defs>
<clipPath id="clip0_148_391">
<rect width="12" height="12" fill="white"/>
</clipPath>
</defs>
</svg>
