<svg width="24" height="32" viewBox="0 0 24 32" fill="none" xmlns="http://www.w3.org/2000/svg">
<path d="M7.6832 5.25H4.4384V6.75H7.6832V5.25ZM10.8716 8.561C10.8716 6.77296 9.48724 5.25 7.6832 5.25V6.75C8.58636 6.75 9.3716 7.52704 9.3716 8.561H10.8716ZM10.8716 11.97V8.561H9.3716V11.97H10.8716ZM7.6832 15.28C9.48519 15.28 10.8716 13.7692 10.8716 11.97H9.3716C9.3716 13.0108 8.5884 13.78 7.6832 13.78V15.28ZM4.4384 15.28H7.6832V13.78H4.4384V15.28ZM1.25 11.97C1.25 13.7712 2.64788 15.28 4.4384 15.28V13.78C3.54092 13.78 2.75 13.0088 2.75 11.97H1.25ZM1.25 8.561V11.97H2.75V8.561H1.25ZM4.4384 5.25C2.64583 5.25 1.25 6.77099 1.25 8.561H2.75C2.75 7.52901 3.54297 6.75 4.4384 6.75V5.25ZM7.6832 16.7197H4.4384V18.2197H7.6832V16.7197ZM10.8716 20.0307C10.8716 18.2319 9.48556 16.7197 7.6832 16.7197V18.2197C8.58803 18.2197 9.3716 18.9895 9.3716 20.0307H10.8716ZM10.8716 23.4397V20.0307H9.3716V23.4397H10.8716ZM7.6832 26.7497C9.48705 26.7497 10.8716 25.2269 10.8716 23.4397H9.3716C9.3716 24.4725 8.58654 25.2497 7.6832 25.2497V26.7497ZM4.4384 26.7497H7.6832V25.2497H4.4384V26.7497ZM1.25 23.4397C1.25 25.2289 2.64602 26.7497 4.4384 26.7497V25.2497C3.54278 25.2497 2.75 24.4705 2.75 23.4397H1.25ZM1.25 20.0307V23.4397H2.75V20.0307H1.25ZM4.4384 16.7197C2.64751 16.7197 1.25 18.2299 1.25 20.0307H2.75C2.75 18.9915 3.54129 18.2197 4.4384 18.2197V16.7197ZM15.5169 6.75H18.7617V5.25H15.5169V6.75ZM13.8285 8.561C13.8285 7.52704 14.6137 6.75 15.5169 6.75V5.25C13.7129 5.25 12.3285 6.77296 12.3285 8.561H13.8285ZM13.8285 11.97V8.561H12.3285V11.97H13.8285ZM15.5169 13.78C14.6117 13.78 13.8285 13.0108 13.8285 11.97H12.3285C12.3285 13.7692 13.7149 15.28 15.5169 15.28V13.78ZM18.7617 13.78H15.5169V15.28H18.7617V13.78ZM20.4501 11.97C20.4501 13.0088 19.6592 13.78 18.7617 13.78V15.28C20.5522 15.28 21.9501 13.7712 21.9501 11.97H20.4501ZM20.4501 8.561V11.97H21.9501V8.561H20.4501ZM18.7617 6.75C19.6571 6.75 20.4501 7.52901 20.4501 8.561H21.9501C21.9501 6.77099 20.5543 5.25 18.7617 5.25V6.75ZM18.7617 16.7197H15.5169V18.2197H18.7617V16.7197ZM21.9501 20.0307C21.9501 18.2299 20.5526 16.7197 18.7617 16.7197V18.2197C19.6588 18.2197 20.4501 18.9915 20.4501 20.0307H21.9501ZM21.9501 23.4397V20.0307H20.4501V23.4397H21.9501ZM18.7617 26.7497C20.5541 26.7497 21.9501 25.2289 21.9501 23.4397H20.4501C20.4501 24.4705 19.6573 25.2497 18.7617 25.2497V26.7497ZM15.5169 26.7497H18.7617V25.2497H15.5169V26.7497ZM12.3285 23.4397C12.3285 25.2269 13.713 26.7497 15.5169 26.7497V25.2497C14.6135 25.2497 13.8285 24.4725 13.8285 23.4397H12.3285ZM12.3285 20.0307V23.4397H13.8285V20.0307H12.3285ZM15.5169 16.7197C13.7145 16.7197 12.3285 18.2319 12.3285 20.0307H13.8285C13.8285 18.9895 14.6121 18.2197 15.5169 18.2197V16.7197Z" fill="#BDBDBD"/>
</svg>
