<svg width="25" height="32" viewBox="0 0 25 32" fill="none" xmlns="http://www.w3.org/2000/svg">
<path d="M9.04004 14C11.2492 14 13.04 12.2091 13.04 10C13.04 7.79086 11.2492 6 9.04004 6C6.8309 6 5.04004 7.79086 5.04004 10C5.04004 12.2091 6.8309 14 9.04004 14Z" stroke="#BDBDBD" stroke-width="1.5"/>
<path d="M15.04 13C16.6969 13 18.04 11.6568 18.04 10C18.04 8.34315 16.6969 7 15.04 7" stroke="#BDBDBD" stroke-width="1.5" stroke-linecap="round"/>
<path d="M9.04004 25C12.906 25 16.04 23.2091 16.04 21C16.04 18.7909 12.906 17 9.04004 17C5.17405 17 2.04004 18.7909 2.04004 21C2.04004 23.2091 5.17405 25 9.04004 25Z" stroke="#BDBDBD" stroke-width="1.5"/>
<path d="M18.04 18C19.7942 18.3847 21.04 19.3589 21.04 20.5C21.04 21.5293 20.0263 22.4229 18.54 22.8704" stroke="#BDBDBD" stroke-width="1.5" stroke-linecap="round"/>
</svg>
