<svg width="24" height="32" viewBox="0 0 24 32" fill="none" xmlns="http://www.w3.org/2000/svg">
<path d="M12 14C14.2091 14 16 12.2091 16 10C16 7.79086 14.2091 6 12 6C9.79086 6 8 7.79086 8 10C8 12.2091 9.79086 14 12 14Z" stroke="#BDBDBD" stroke-width="1.5"/>
<path d="M17 26C19.2091 26 21 24.2091 21 22C21 19.7909 19.2091 18 17 18C14.7909 18 13 19.7909 13 22C13 24.2091 14.7909 26 17 26Z" stroke="#BDBDBD" stroke-width="1.5"/>
<path d="M17 20.6667V23.3333" stroke="#BDBDBD" stroke-width="1.5" stroke-linecap="round" stroke-linejoin="round"/>
<path d="M15.6665 22H18.3332" stroke="#BDBDBD" stroke-width="1.5" stroke-linecap="round" stroke-linejoin="round"/>
<path d="M14 24.8344C13.3663 24.9421 12.695 25 12 25C8.13401 25 5 23.2091 5 21C5 18.7909 8.13401 17 12 17C13.7135 17 15.2832 17.3518 16.5 17.9359" stroke="#BDBDBD" stroke-width="1.5"/>
</svg>
